<svg width="1200" height="900" viewBox="0 0 1200 900" fill="none" xmlns="http://www.w3.org/2000/svg">
  <rect width="1200" height="900" rx="40" fill="#060A14"/>
  <rect x="36" y="36" width="1128" height="828" rx="28" fill="url(#paint0_linear)"/>
  <rect x="78" y="76" width="1044" height="84" rx="20" fill="#0D1323" stroke="#1F2B45"/>
  <rect x="110" y="108" width="120" height="20" rx="10" fill="#2E89FF"/>
  <rect x="858" y="104" width="92" height="28" rx="14" fill="#10192C"/>
  <rect x="970" y="104" width="120" height="28" rx="14" fill="#2E89FF"/>
  <rect x="78" y="188" width="490" height="270" rx="28" fill="#0B1020" stroke="#202D49"/>
  <rect x="106" y="222" width="180" height="20" rx="10" fill="#1D2942"/>
  <rect x="106" y="260" width="324" height="54" rx="18" fill="#F2F6FF"/>
  <rect x="106" y="330" width="260" height="16" rx="8" fill="#60708F"/>
  <rect x="106" y="358" width="228" height="16" rx="8" fill="#3B4B67"/>
  <rect x="106" y="402" width="144" height="32" rx="16" fill="#2E89FF"/>
  <rect x="594" y="188" width="528" height="270" rx="28" fill="#0B1020" stroke="#202D49"/>
  <rect x="624" y="220" width="468" height="188" rx="22" fill="url(#paint1_linear)"/>
  <rect x="78" y="490" width="322" height="302" rx="28" fill="#0B1020" stroke="#202D49"/>
  <rect x="430" y="490" width="336" height="302" rx="28" fill="#0B1020" stroke="#202D49"/>
  <rect x="796" y="490" width="326" height="302" rx="28" fill="#0B1020" stroke="#202D49"/>
  <rect x="108" y="524" width="116" height="18" rx="9" fill="#1D2942"/>
  <rect x="108" y="560" width="200" height="120" rx="20" fill="#111A2E"/>
  <rect x="108" y="700" width="150" height="14" rx="7" fill="#556580"/>
  <rect x="108" y="728" width="118" height="14" rx="7" fill="#37465F"/>
  <rect x="460" y="524" width="116" height="18" rx="9" fill="#1D2942"/>
  <rect x="460" y="560" width="276" height="18" rx="9" fill="#E8F0FF"/>
  <rect x="460" y="594" width="240" height="14" rx="7" fill="#5A6A86"/>
  <rect x="460" y="628" width="276" height="110" rx="20" fill="url(#paint2_linear)"/>
  <rect x="826" y="524" width="116" height="18" rx="9" fill="#1D2942"/>
  <rect x="826" y="560" width="140" height="140" rx="70" fill="#2E89FF" fill-opacity="0.16"/>
  <rect x="846" y="580" width="100" height="100" rx="50" fill="#2E89FF" fill-opacity="0.28"/>
  <defs>
    <linearGradient id="paint0_linear" x1="600" y1="36" x2="600" y2="864" gradientUnits="userSpaceOnUse">
      <stop stop-color="#09101E"/>
      <stop offset="1" stop-color="#05070E"/>
    </linearGradient>
    <linearGradient id="paint1_linear" x1="858" y1="220" x2="858" y2="408" gradientUnits="userSpaceOnUse">
      <stop stop-color="#1F4D9C"/>
      <stop offset="1" stop-color="#0D1833"/>
    </linearGradient>
    <linearGradient id="paint2_linear" x1="598" y1="628" x2="598" y2="738" gradientUnits="userSpaceOnUse">
      <stop stop-color="#16356E"/>
      <stop offset="1" stop-color="#0A1121"/>
    </linearGradient>
  </defs>
</svg>
