<svg width="1200" height="900" viewBox="0 0 1200 900" fill="none" xmlns="http://www.w3.org/2000/svg">
  <rect width="1200" height="900" rx="40" fill="#050913"/>
  <rect x="40" y="40" width="1120" height="820" rx="32" fill="#08101E"/>
  <rect x="78" y="78" width="1044" height="72" rx="18" fill="#0E1526" stroke="#1E2940"/>
  <rect x="112" y="104" width="148" height="20" rx="10" fill="#EAF2FF"/>
  <rect x="884" y="100" width="92" height="28" rx="14" fill="#10192D"/>
  <rect x="992" y="100" width="96" height="28" rx="14" fill="#2E89FF"/>
  <rect x="78" y="182" width="308" height="612" rx="26" fill="#0B1120" stroke="#1F2C45"/>
  <rect x="110" y="216" width="140" height="18" rx="9" fill="#1E2A42"/>
  <rect x="110" y="258" width="244" height="58" rx="20" fill="#F1F6FF"/>
  <rect x="110" y="334" width="216" height="16" rx="8" fill="#60708C"/>
  <rect x="110" y="382" width="116" height="34" rx="17" fill="#2E89FF"/>
  <rect x="418" y="182" width="704" height="298" rx="26" fill="url(#paint0_linear)"/>
  <rect x="456" y="226" width="300" height="22" rx="11" fill="#EAF2FF"/>
  <rect x="456" y="266" width="220" height="16" rx="8" fill="#8EA0C5"/>
  <rect x="456" y="324" width="628" height="116" rx="22" fill="#0D1630" stroke="#28436E"/>
  <rect x="418" y="512" width="338" height="282" rx="26" fill="#0B1120" stroke="#1F2C45"/>
  <rect x="784" y="512" width="338" height="282" rx="26" fill="#0B1120" stroke="#1F2C45"/>
  <rect x="448" y="546" width="116" height="18" rx="9" fill="#1E2A42"/>
  <rect x="448" y="582" width="278" height="82" rx="20" fill="#111A2E"/>
  <rect x="448" y="684" width="218" height="14" rx="7" fill="#52617D"/>
  <rect x="814" y="546" width="116" height="18" rx="9" fill="#1E2A42"/>
  <rect x="814" y="582" width="130" height="130" rx="24" fill="#2E89FF" fill-opacity="0.18"/>
  <rect x="960" y="582" width="130" height="130" rx="24" fill="#131D33"/>
  <rect x="814" y="730" width="276" height="14" rx="7" fill="#52617D"/>
  <defs>
    <linearGradient id="paint0_linear" x1="770" y1="182" x2="770" y2="480" gradientUnits="userSpaceOnUse">
      <stop stop-color="#184594"/>
      <stop offset="1" stop-color="#0A1223"/>
    </linearGradient>
  </defs>
</svg>
