<svg width="1200" height="900" viewBox="0 0 1200 900" fill="none" xmlns="http://www.w3.org/2000/svg">
  <rect width="1200" height="900" rx="40" fill="#050912"/>
  <rect x="42" y="42" width="1116" height="816" rx="32" fill="url(#paint0_linear)"/>
  <rect x="82" y="82" width="1036" height="86" rx="24" fill="#0D1425" stroke="#1C2740"/>
  <rect x="116" y="116" width="164" height="18" rx="9" fill="#DDE9FF"/>
  <rect x="868" y="110" width="92" height="30" rx="15" fill="#121B2E"/>
  <rect x="978" y="110" width="106" height="30" rx="15" fill="#2E89FF"/>
  <rect x="82" y="200" width="1036" height="276" rx="30" fill="#0A1120" stroke="#1E2942"/>
  <rect x="118" y="236" width="190" height="18" rx="9" fill="#1B2840"/>
  <rect x="118" y="274" width="320" height="64" rx="22" fill="#F2F6FF"/>
  <rect x="118" y="354" width="266" height="16" rx="8" fill="#61718D"/>
  <rect x="118" y="382" width="226" height="16" rx="8" fill="#465773"/>
  <rect x="118" y="422" width="148" height="34" rx="17" fill="#2E89FF"/>
  <rect x="620" y="236" width="458" height="204" rx="26" fill="url(#paint1_linear)"/>
  <rect x="82" y="508" width="492" height="286" rx="30" fill="#0A1120" stroke="#1E2942"/>
  <rect x="626" y="508" width="492" height="286" rx="30" fill="#0A1120" stroke="#1E2942"/>
  <rect x="118" y="544" width="164" height="18" rx="9" fill="#1C2942"/>
  <rect x="118" y="580" width="420" height="92" rx="24" fill="#111A2F"/>
  <rect x="118" y="694" width="214" height="14" rx="7" fill="#586884"/>
  <rect x="662" y="544" width="164" height="18" rx="9" fill="#1C2942"/>
  <rect x="662" y="580" width="194" height="160" rx="28" fill="#131D32"/>
  <rect x="876" y="580" width="206" height="74" rx="22" fill="#2E89FF" fill-opacity="0.16"/>
  <rect x="876" y="666" width="206" height="74" rx="22" fill="#141E34"/>
  <defs>
    <linearGradient id="paint0_linear" x1="600" y1="42" x2="600" y2="858" gradientUnits="userSpaceOnUse">
      <stop stop-color="#09101D"/>
      <stop offset="1" stop-color="#05070E"/>
    </linearGradient>
    <linearGradient id="paint1_linear" x1="849" y1="236" x2="849" y2="440" gradientUnits="userSpaceOnUse">
      <stop stop-color="#295EBE"/>
      <stop offset="1" stop-color="#0A1223"/>
    </linearGradient>
  </defs>
</svg>
